<?xml version="1.0" encoding="iso-8859-1"?>
<!-- Uploaded to: SVG Repo, www.svgrepo.com, Generator: SVG Repo Mixer Tools -->
<svg version="1.1" id="Layer_1" xmlns="http://www.w3.org/2000/svg" xmlns:xlink="http://www.w3.org/1999/xlink" 
	 viewBox="0 0 512 512" xml:space="preserve">
<g transform="translate(0 1)">
	<g>
		<path style="fill:#FFE100;" d="M76.8,280.6c-37.547,0-68.267-30.72-68.267-68.267V101.4c0-28.16,23.04-51.2,51.2-51.2
			s51.2,23.04,51.2,51.2c0,5.12-3.413,8.533-8.533,8.533c-5.12,0-8.533-3.413-8.533-8.533c0-18.773-15.36-34.133-34.133-34.133
			S25.6,82.627,25.6,101.4v110.933c0,28.16,23.04,51.2,51.2,51.2c5.12,0,8.533,3.413,8.533,8.533S81.92,280.6,76.8,280.6z"/>
		<path style="fill:#FFE100;" d="M372.053,284.013L345.6,236.227c-8.533-15.36-23.04-23.893-38.4-23.893H151.04
			c-15.36,0-30.72,9.387-38.4,23.893l-38.4,69.12c-5.973,11.093-16.213,17.92-28.16,17.92l0,0c-6.827,0-11.947,5.973-11.947,12.8
			c0,18.773,0,53.76,0,76.8c0,11.947,8.533,21.333,18.773,21.333H71.68c0-28.16,20.48-51.2,46.08-51.2s34.987,23.04,34.987,51.2
			h204.8c0-28.16,10.24-51.2,34.987-51.2c25.6,0,46.08,23.04,46.08,51.2h15.36c12.8,0,23.04-11.947,23.04-25.6v-71.68
			c0-6.827-5.12-12.8-11.947-12.8h-31.573C409.6,323.267,385.707,308.76,372.053,284.013"/>
		<path style="fill:#FFE100;" d="M345.6,236.227l26.453,47.787c13.653,23.893,36.693,39.253,62.293,39.253h20.48
			c-28.16,0-54.613-14.507-69.973-39.253l-29.867-47.787c-9.387-15.36-25.6-23.893-43.52-23.893H307.2
			C322.56,212.333,337.92,221.72,345.6,236.227"/>
	</g>
	<path style="fill:#FFFFFF;" d="M34.133,412.867c0-23.04,0-58.027,0-76.8c0-6.827,5.12-12.8,11.947-12.8l0,0
		c11.947,0,22.187-6.827,28.16-17.92l38.4-69.12c8.533-15.36,23.04-23.893,38.4-23.893h-11.947c-17.92,0-34.133,9.387-43.52,23.893
		l-42.667,69.12c-5.973,11.093-17.92,17.92-30.72,17.92l0,0c-7.68,0-13.653,5.973-13.653,12.8c0,18.773,0,53.76,0,76.8
		c0,11.947,9.387,21.333,21.333,21.333H51.2l0,0C41.813,432.493,34.133,423.96,34.133,412.867"/>
	<path style="fill:#FFA800;" d="M487.253,323.267H463.36c6.827,0,11.947,5.973,11.947,12.8V408.6
		c0,11.947-7.68,22.187-17.067,24.747v0.853h17.067c14.507,0,25.6-11.947,25.6-25.6v-71.68
		C500.053,329.24,494.08,323.267,487.253,323.267"/>
	<path style="fill:#FECC00;" d="M435.2,434.2c0,28.16-17.067,51.2-38.4,51.2s-38.4-23.04-38.4-51.2c0-28.16,17.067-51.2,38.4-51.2
		S435.2,406.04,435.2,434.2"/>
	<path style="fill:#FFA800;" d="M409.6,383c-2.56,0-5.12,0-7.68,0.853c18.773,3.413,33.28,24.747,33.28,50.347
		c0,25.6-14.507,46.933-33.28,50.347c2.56,0,5.12,0.853,7.68,0.853c28.16,0,51.2-23.04,51.2-51.2C460.8,406.04,437.76,383,409.6,383
		"/>
	<path style="fill:#FECC00;" d="M128,434.2c0,28.16-17.067,51.2-38.4,51.2s-38.4-23.04-38.4-51.2c0-28.16,17.067-51.2,38.4-51.2
		S128,406.04,128,434.2"/>
	<path style="fill:#FFA800;" d="M102.4,383c-2.56,0-5.12,0-7.68,0.853C113.493,387.267,128,408.6,128,434.2
		c0,25.6-14.507,46.933-33.28,50.347c2.56,0,5.12,0.853,7.68,0.853c28.16,0,51.2-23.04,51.2-51.2C153.6,406.04,130.56,383,102.4,383
		"/>
	<path style="fill:#63D3FD;" d="M360.107,284.013l-23.04-37.547h-202.24c-4.267,0-6.827,3.413-6.827,6.827v36.693
		c0,4.267,3.413,6.827,6.827,6.827h235.52C366.933,293.4,362.667,289.133,360.107,284.013"/>
	<path style="fill:#3DB9F9;" d="M381.44,284.013l-23.04-37.547h-25.6l23.04,37.547c3.413,5.12,6.827,9.387,10.24,13.653h25.6
		C388.267,293.4,384.853,289.133,381.44,284.013"/>
	<g>
		<path style="fill:#FFE100;" d="M145.067,152.6c-28.16,0-51.2-23.04-51.2-51.2c0-5.12,3.413-8.533,8.533-8.533
			c5.12,0,8.533,3.413,8.533,8.533c0,18.773,15.36,34.133,34.133,34.133S179.2,120.173,179.2,101.4c0-5.12,3.413-8.533,8.533-8.533
			c5.12,0,8.533,3.413,8.533,8.533C196.267,129.56,173.227,152.6,145.067,152.6z"/>
		<path style="fill:#FFE100;" d="M153.6,101.4h51.2V58.733h-51.2V101.4z"/>
	</g>
	<path d="M102.4,493.933c-33.28,0-59.733-26.453-59.733-59.733s26.453-59.733,59.733-59.733s59.733,26.453,59.733,59.733
		S135.68,493.933,102.4,493.933z M102.4,391.533c-23.893,0-42.667,18.773-42.667,42.667c0,23.893,18.773,42.667,42.667,42.667
		s42.667-18.773,42.667-42.667C145.067,410.307,126.293,391.533,102.4,391.533z"/>
	<path d="M119.467,434.2c0,9.387-7.68,17.067-17.067,17.067s-17.067-7.68-17.067-17.067s7.68-17.067,17.067-17.067
		S119.467,424.813,119.467,434.2"/>
	<path d="M409.6,493.933c-33.28,0-59.733-26.453-59.733-59.733s26.453-59.733,59.733-59.733s59.733,26.453,59.733,59.733
		S442.88,493.933,409.6,493.933z M409.6,391.533c-23.893,0-42.667,18.773-42.667,42.667c0,23.893,18.773,42.667,42.667,42.667
		c23.893,0,42.667-18.773,42.667-42.667C452.267,410.307,433.493,391.533,409.6,391.533z"/>
	<path d="M426.667,434.2c0,9.387-7.68,17.067-17.067,17.067c-9.387,0-17.067-7.68-17.067-17.067s7.68-17.067,17.067-17.067
		C418.987,417.133,426.667,424.813,426.667,434.2"/>
	<path d="M477.867,442.733h-25.6V434.2c0-23.893-18.773-42.667-42.667-42.667c-23.893,0-42.667,18.773-42.667,42.667v8.533H145.067
		V434.2c0-23.893-18.773-42.667-42.667-42.667S59.733,410.307,59.733,434.2v8.533H29.867C13.653,442.733,0,429.08,0,412.867v-76.8
		c0-5.973,2.56-11.093,5.973-15.36c4.267-3.413,9.387-5.973,15.36-5.973c10.24,0,19.627-5.12,24.747-13.653l42.667-69.12
		c11.093-17.067,29.867-28.16,50.347-28.16h174.08c20.48,0,40.107,11.093,50.347,28.16l29.867,47.787
		c13.653,21.333,37.547,34.987,62.293,34.987h34.987c11.947,0,21.333,9.387,21.333,21.333V408.6
		C512,427.373,496.64,442.733,477.867,442.733z M468.48,425.667h8.533c9.387,0,17.067-7.68,17.067-17.067v-71.68
		c0-2.56-1.707-4.267-4.267-4.267h-34.987c-31.573,0-60.587-16.213-76.8-42.667L348.16,242.2
		c-6.827-13.653-20.48-21.333-34.987-21.333h-174.08c-14.507,0-28.16,7.68-35.84,20.48l-42.667,69.12
		c-7.68,12.8-23.04,21.333-38.4,21.333c-1.707,0-2.56,0.853-3.413,1.707c-1.707,0.853-1.707,1.707-1.707,2.56v76.8
		c0,6.827,5.973,12.8,12.8,12.8H43.52c4.267-29.013,29.013-51.2,58.88-51.2s54.613,22.187,58.88,51.2h188.587
		c4.267-29.013,29.013-51.2,58.88-51.2S464.213,396.653,468.48,425.667z"/>
	<path d="M415.573,306.2H134.827c-8.533,0-15.36-6.827-15.36-15.36v-36.693c0-8.533,6.827-15.36,15.36-15.36h232.107l25.6,41.813
		c2.56,4.267,5.12,7.68,9.387,11.947L415.573,306.2z M136.533,289.133H378.88l0,0L358.4,255H136.533V289.133z"/>
	<rect x="247.467" y="246.467" width="17.067" height="51.2"/>
	<path d="M298.667,348.867H256c-5.12,0-8.533-3.413-8.533-8.533c0-5.12,3.413-8.533,8.533-8.533h42.667
		c5.12,0,8.533,3.413,8.533,8.533C307.2,345.453,303.787,348.867,298.667,348.867z"/>
	<path d="M298.667,365.933c-5.12,0-8.533-3.413-8.533-8.533v-17.067c0-5.12,3.413-8.533,8.533-8.533s8.533,3.413,8.533,8.533V357.4
		C307.2,362.52,303.787,365.933,298.667,365.933z"/>
	<path d="M503.467,374.467h-34.133c-5.12,0-8.533-3.413-8.533-8.533s3.413-8.533,8.533-8.533h34.133c5.12,0,8.533,3.413,8.533,8.533
		S508.587,374.467,503.467,374.467z"/>
	<path d="M42.667,374.467H8.533c-5.12,0-8.533-3.413-8.533-8.533s3.413-8.533,8.533-8.533h34.133c5.12,0,8.533,3.413,8.533,8.533
		S47.787,374.467,42.667,374.467z"/>
	<path d="M68.267,280.6C30.72,280.6,0,249.88,0,212.333V101.4c0-28.16,23.04-51.2,51.2-51.2s51.2,23.04,51.2,51.2
		c0,5.12-3.413,8.533-8.533,8.533s-8.533-3.413-8.533-8.533c0-18.773-15.36-34.133-34.133-34.133S17.067,82.627,17.067,101.4
		v110.933c0,28.16,23.04,51.2,51.2,51.2c5.12,0,8.533,3.413,8.533,8.533S73.387,280.6,68.267,280.6z"/>
	<path d="M136.533,152.6c-28.16,0-51.2-23.04-51.2-51.2c0-5.12,3.413-8.533,8.533-8.533s8.533,3.413,8.533,8.533
		c0,18.773,15.36,34.133,34.133,34.133s34.133-15.36,34.133-34.133c0-5.12,3.413-8.533,8.533-8.533c5.12,0,8.533,3.413,8.533,8.533
		C187.733,129.56,164.693,152.6,136.533,152.6z"/>
	<path d="M204.8,109.933h-51.2c-5.12,0-8.533-3.413-8.533-8.533V58.733c0-5.12,3.413-8.533,8.533-8.533h51.2
		c5.12,0,8.533,3.413,8.533,8.533V101.4C213.333,106.52,209.92,109.933,204.8,109.933z M162.133,92.867h34.133v-25.6h-34.133V92.867
		z"/>
	<path d="M196.267,67.267c-5.12,0-8.533-3.413-8.533-8.533V24.6c0-5.12,3.413-8.533,8.533-8.533c5.12,0,8.533,3.413,8.533,8.533
		v34.133C204.8,63.853,201.387,67.267,196.267,67.267z"/>
	<path d="M162.133,67.267c-5.12,0-8.533-3.413-8.533-8.533V24.6c0-5.12,3.413-8.533,8.533-8.533c5.12,0,8.533,3.413,8.533,8.533
		v34.133C170.667,63.853,167.253,67.267,162.133,67.267z"/>
</g>
</svg>